
<svg width="56px" height="56px" viewBox="0 0 56 56" version="1.1" xmlns="http://www.w3.org/2000/svg" xmlns:xlink="http://www.w3.org/1999/xlink">
    <g id="Page-1" stroke="none" stroke-width="1" fill="none" fill-rule="evenodd">
        <g id="Checked-In-Collector" transform="translate(-161.000000, -208.000000)">
            <g id="Mid-Body" transform="translate(147.000000, 208.000000)">
                <g id="ic_unarchive" transform="translate(14.000000, 0.000000)" fill="#00B8F1">
                    <g id="Icon-24px">
                        <path d="M54.6,6.90666667 L50.2755556,1.68 C49.4044444,0.653333333 48.1288889,0 46.6666667,0 L9.33333333,0 C7.87111111,0 6.59555556,0.653333333 5.75555556,1.71111111 L1.43111111,6.90666667 C0.528888889,7.99555556 0,9.36444444 0,10.8888889 L0,49.7777778 C0,53.2 2.76888889,56 6.22222222,56 L49.7777778,56 C53.2,56 56,53.2 56,49.7777778 L56,10.8888889 C56,9.36444444 55.4711111,7.99555556 54.6,6.90666667 L54.6,6.90666667 Z M6.59555556,6.22222222 L9.14666667,3.11111111 L46.48,3.11111111 L49.3733333,6.22222222 L6.59555556,6.22222222 L6.59555556,6.22222222 Z" id="Shape"></path>
                    </g>
                </g>
                <g id="Group-3" transform="translate(29.000000, 18.000000)" stroke="#FFFFFF" stroke-linecap="square" stroke-width="4">
                    <path d="M13,0 L13,26" id="Line-9"></path>
                    <path d="M26,13 L0,13" id="Line-9"></path>
                </g>
            </g>
        </g>
    </g>
</svg>