
<svg width="21px" height="16px" viewBox="0 0 21 16" version="1.1" xmlns="http://www.w3.org/2000/svg" xmlns:xlink="http://www.w3.org/1999/xlink">
    <g id="Page-1" stroke="none" stroke-width="1" fill="none" fill-rule="evenodd">
        <g id="Checked-In-Collector" transform="translate(-284.000000, -266.000000)">
            <g id="Donors-Button" transform="translate(268.000000, 256.000000)">
                <g id="Group-4" transform="translate(16.000000, 6.000000)">
                    <g id="ic_person" transform="translate(1.000000, 0.000000)">
                        <g id="Icon-24px">
                            <path d="M12,12 C14.21,12 16,10.21 16,8 C16,5.79 14.21,4 12,4 C9.79,4 8,5.79 8,8 C8,10.21 9.79,12 12,12 L12,12 Z M12,14 C9.33,14 4,15.34 4,18 L4,20 L20,20 L20,18 C20,15.34 14.67,14 12,14 L12,14 Z" id="Shape" fill="#035899"></path>
                            <polygon id="Shape" points="0 0 24 0 24 24 0 24"></polygon>
                        </g>
                    </g>
                    <path d="M0.5,4.5 L7.5,4.5" id="Line-10" stroke="#035899" stroke-linecap="square"></path>
                    <path d="M0.5,6.5 L7.5,6.5" id="Line-10" stroke="#035899" stroke-linecap="square"></path>
                    <path d="M0.5,8.5 L7.5,8.5" id="Line-10" stroke="#035899" stroke-linecap="square"></path>
                    <path d="M0.5,10.5 L7.5,10.5" id="Line-10-Copy" stroke="#035899" stroke-linecap="square"></path>
                    <path d="M0.5,12.5 L7.5,12.5" id="Line-10-Copy-2" stroke="#035899" stroke-linecap="square"></path>
                </g>
            </g>
        </g>
    </g>
</svg>