
<svg width="16px" height="20px" viewBox="0 0 16 20" version="1.1" xmlns="http://www.w3.org/2000/svg" xmlns:xlink="http://www.w3.org/1999/xlink">
    <g id="Page-1" stroke="none" stroke-width="1" fill="none" fill-rule="evenodd">
        <g id="Feed-Page" transform="translate(-334.000000, -36.000000)">
            <g id="Top-" transform="translate(-1.000000, 0.000000)">
                <g id="ic_notifications" transform="translate(331.000000, 34.000000)">
                    <g id="Icon-24px">
                        <g>
                            <polygon id="Bounds" points="0 0 24 0 24 23 0 23"></polygon>
                            <path d="M12,21.5625 C13.1,21.5625 14,20.7 14,19.6458333 L10,19.6458333 C10,20.7 10.89,21.5625 12,21.5625 L12,21.5625 Z M18,15.8125 L18,11.0208333 C18,8.07875 16.36,5.61583333 13.5,4.96416667 L13.5,4.3125 C13.5,3.51708333 12.83,2.875 12,2.875 C11.17,2.875 10.5,3.51708333 10.5,4.3125 L10.5,4.96416667 C7.63,5.61583333 6,8.06916667 6,11.0208333 L6,15.8125 L4,17.7291667 L4,18.6875 L20,18.6875 L20,17.7291667 L18,15.8125 L18,15.8125 Z" id="Shape" fill="#035899"></path>
                        </g>
                    </g>
                </g>
            </g>
        </g>
    </g>
</svg>