<?xml version="1.0" standalone="no"?>
<!DOCTYPE svg PUBLIC "-//W3C//DTD SVG 20010904//EN"
 "http://www.w3.org/TR/2001/REC-SVG-20010904/DTD/svg10.dtd">
<svg version="1.0" xmlns="http://www.w3.org/2000/svg"
 width="1296.000000pt" height="664.000000pt" viewBox="0 0 1296.000000 664.000000"
 preserveAspectRatio="xMidYMid meet">
<metadata>
Created by potrace 1.15, written by Peter Selinger 2001-2017
</metadata>
<g transform="translate(0.000000,664.000000) scale(0.100000,-0.100000)"
fill="#000000" stroke="none">
<path d="M8629 5827 c-36 -24 -58 -85 -245 -652 -36 -110 -83 -249 -104 -310
-22 -60 -80 -233 -130 -384 -50 -150 -97 -290 -105 -310 -7 -20 -41 -119 -74
-221 -33 -102 -112 -338 -176 -525 -63 -187 -135 -401 -160 -475 -24 -74 -60
-182 -80 -240 -20 -58 -119 -352 -220 -655 -281 -836 -286 -849 -299 -865 -7
-8 -16 -24 -21 -35 -6 -17 -10 -14 -27 25 -11 25 -26 77 -33 115 -7 39 -25
131 -40 205 -33 167 -55 284 -89 465 -14 77 -35 185 -46 240 -11 55 -31 161
-45 235 -14 74 -34 180 -45 235 -11 55 -29 152 -40 215 -11 63 -23 122 -26
130 -3 8 -14 62 -24 120 -33 184 -46 244 -58 267 -18 32 -64 53 -116 53 -59 0
-101 -36 -157 -133 -22 -40 -63 -108 -90 -152 -26 -44 -67 -111 -90 -150 -22
-38 -63 -106 -89 -150 -27 -44 -63 -105 -81 -135 -17 -30 -46 -77 -64 -105
-33 -50 -46 -72 -106 -175 -67 -114 -120 -190 -134 -190 -29 0 -35 24 -85 370
-11 74 -22 144 -25 155 -3 11 -15 76 -25 145 -34 217 -70 441 -91 570 -30 187
-65 409 -87 556 -11 72 -25 140 -31 151 -6 12 -27 31 -47 43 -42 27 -107 24
-147 -6 -25 -18 -178 -317 -590 -1154 -83 -168 -157 -313 -165 -322 -14 -17
-77 -18 -1048 -18 l-1033 0 -36 -31 c-30 -27 -35 -37 -35 -76 0 -58 12 -79 60
-103 39 -20 58 -20 1113 -20 1186 0 1127 -3 1167 63 11 17 133 257 270 532
138 275 261 515 275 534 l25 33 10 -26 c5 -14 15 -38 21 -53 6 -16 22 -102 36
-193 13 -91 33 -217 43 -280 11 -63 31 -189 45 -280 15 -91 35 -217 45 -280
21 -133 62 -390 90 -570 33 -214 40 -234 81 -255 38 -20 123 -19 154 1 14 9
43 48 66 88 22 39 62 107 89 151 27 44 68 112 91 150 22 39 63 106 90 150 26
44 64 107 84 140 20 33 58 96 85 140 27 44 65 108 85 143 42 73 104 165 139
207 23 27 26 28 31 10 4 -11 11 -29 18 -40 6 -11 19 -67 29 -125 11 -58 28
-150 39 -205 11 -55 28 -145 38 -200 11 -55 31 -161 45 -235 15 -74 35 -180
45 -235 24 -125 65 -339 91 -470 11 -55 31 -161 45 -235 14 -74 34 -180 45
-235 11 -55 30 -154 41 -220 25 -143 44 -222 61 -242 21 -26 66 -43 112 -43
36 0 52 6 76 28 33 29 0 -64 471 1337 95 281 185 548 201 595 16 47 40 119 53
160 13 41 93 282 179 535 86 253 173 510 193 570 19 61 62 189 95 285 32 96
95 281 138 410 87 259 97 288 116 341 7 20 42 126 78 235 93 286 134 396 150
412 21 21 45 8 62 -34 8 -20 58 -112 110 -204 52 -92 94 -170 94 -174 0 -3 35
-70 78 -148 122 -222 230 -422 284 -527 82 -160 143 -199 236 -152 97 50 87
100 -83 401 -23 41 -54 99 -69 129 -14 29 -62 118 -106 196 -44 79 -80 146
-80 149 0 4 -40 77 -88 164 -48 86 -93 170 -100 185 -6 15 -41 79 -77 142 -36
63 -65 118 -65 121 0 4 -26 53 -57 110 -44 79 -65 108 -89 119 -47 22 -105 19
-145 -8z"/>
<path d="M9135 3554 c-165 -25 -325 -141 -402 -291 -117 -228 -84 -468 89
-654 29 -32 184 -173 343 -316 160 -142 354 -316 433 -386 l143 -128 71 63
c40 35 104 95 143 133 39 39 218 202 397 362 180 161 338 308 351 325 72 96
106 205 107 334 1 308 -208 539 -506 561 -162 12 -285 -44 -510 -229 -25 -21
-51 -38 -59 -38 -7 0 -42 27 -78 59 -83 75 -171 135 -256 174 -55 25 -81 31
-151 33 -47 1 -98 0 -115 -2z"/>
</g>
</svg>
