<?xml version="1.0" standalone="no"?>
<!DOCTYPE svg PUBLIC "-//W3C//DTD SVG 20010904//EN"
 "http://www.w3.org/TR/2001/REC-SVG-20010904/DTD/svg10.dtd">
<svg version="1.0" xmlns="http://www.w3.org/2000/svg"
 width="1500.000000pt" height="1500.000000pt" viewBox="0 0 1500.000000 1500.000000"
 preserveAspectRatio="xMidYMid meet">
<metadata>
Created by potrace 1.15, written by Peter Selinger 2001-2017
</metadata>
<g transform="translate(0.000000,1500.000000) scale(0.100000,-0.100000)"
fill="#000000" stroke="none">
<path d="M2645 8247 c-118 -40 -207 -117 -258 -224 -39 -85 -49 -207 -23 -295
53 -184 232 -308 424 -296 118 8 183 37 268 122 96 96 118 151 119 296 0 100
-2 109 -34 175 -44 89 -113 157 -199 198 -58 27 -79 32 -162 34 -59 2 -110 -2
-135 -10z"/>
<path d="M11863 8241 c-190 -70 -307 -265 -274 -457 25 -143 110 -256 238
-317 63 -30 76 -32 173 -32 97 0 110 2 172 32 131 62 216 174 241 316 29 173
-69 360 -232 439 -58 29 -75 33 -165 35 -79 2 -112 -2 -153 -16z"/>
<path d="M6215 8007 c-117 -39 -198 -110 -248 -215 -29 -61 -32 -76 -32 -162
1 -131 25 -192 114 -281 87 -87 150 -113 276 -113 126 0 189 26 276 113 88 89
113 149 114 281 0 86 -3 101 -32 162 -40 86 -106 151 -191 191 -55 26 -81 32
-152 34 -52 2 -101 -2 -125 -10z"/>
<path d="M8583 8006 c-187 -61 -311 -261 -275 -443 27 -135 106 -238 227 -294
209 -98 459 8 536 227 16 47 20 77 17 150 -3 78 -8 100 -36 157 -39 78 -112
148 -192 185 -67 31 -209 40 -277 18z"/>
<path d="M2192 7250 c-156 -41 -283 -140 -354 -276 -68 -129 -68 -127 -68
-826 0 -420 4 -636 11 -655 6 -15 19 -37 30 -49 19 -20 18 -28 -171 -1029
-165 -873 -189 -1013 -179 -1037 14 -35 37 -48 82 -48 73 0 59 -52 269 1061
189 1002 192 1013 220 1037 16 13 34 34 41 46 9 15 13 162 17 567 5 510 6 548
23 567 26 28 64 33 90 12 l22 -18 5 -1549 5 -1548 22 -40 c92 -171 324 -171
416 0 22 40 22 41 27 955 3 503 6 916 8 918 1 1 14 7 29 13 23 9 53 3 85 -15
2 0 5 -413 8 -916 5 -914 5 -915 27 -955 44 -82 119 -128 208 -128 89 0 164
46 208 128 l22 40 3 1547 2 1547 25 19 c29 23 66 19 92 -10 17 -19 18 -57 23
-572 6 -621 1 -585 84 -626 72 -34 151 -20 194 35 12 16 24 26 26 24 6 -6 302
-541 330 -598 22 -42 26 -64 26 -131 0 -69 -11 -121 -79 -373 -44 -160 -83
-304 -86 -319 l-7 -28 86 0 86 0 0 -278 c0 -268 1 -279 23 -322 25 -50 88 -90
142 -90 50 1 110 34 136 76 24 38 24 43 27 327 l3 287 44 0 44 0 3 -282 c3
-264 4 -286 24 -323 24 -46 89 -85 143 -85 55 0 112 38 139 90 21 43 22 54 22
322 l0 278 85 0 c55 0 85 4 85 11 0 6 -38 151 -85 323 -72 262 -85 323 -85
386 0 90 2 94 168 392 66 119 135 245 153 280 17 34 33 65 35 67 2 2 13 -8 25
-22 13 -17 41 -33 76 -43 51 -15 58 -15 99 1 46 17 84 58 104 110 6 16 72 234
146 484 75 250 140 463 145 474 8 13 19 17 42 15 67 -6 71 16 -178 -885 -125
-456 -230 -838 -233 -850 l-4 -23 210 0 211 0 3 -627 3 -628 25 -45 c48 -85
144 -126 240 -100 60 16 123 81 138 143 9 32 12 227 12 651 l0 606 55 0 54 0
3 -627 c3 -626 3 -628 25 -669 69 -129 230 -153 329 -49 27 28 45 58 52 88 9
32 12 227 12 651 l0 606 211 0 211 0 -4 23 c-3 12 -107 395 -233 850 -248 901
-244 879 -178 885 23 2 34 -2 42 -16 6 -11 74 -233 151 -493 91 -304 150 -488
166 -512 16 -25 42 -46 71 -59 39 -17 50 -18 94 -8 90 22 129 74 129 172 -1
78 -332 1153 -381 1233 -47 79 -129 159 -197 192 l-57 28 -500 0 -500 0 -55
-27 c-66 -33 -153 -116 -199 -193 -25 -41 -78 -201 -207 -620 -96 -311 -174
-572 -174 -579 0 -11 -9 -9 -37 6 -42 21 -90 19 -128 -6 -12 -8 -64 -83 -115
-166 -100 -164 -137 -213 -181 -236 -41 -21 -467 -21 -509 1 -41 21 -86 80
-179 235 -45 74 -93 145 -106 157 -38 34 -87 39 -134 14 l-40 -20 -3 612 -3
612 -26 66 c-57 148 -148 253 -272 314 -126 62 -155 65 -702 64 -450 0 -496
-2 -563 -19z"/>
<path d="M11443 7255 c-147 -32 -302 -149 -370 -280 -64 -123 -64 -116 -61
-837 3 -635 4 -654 23 -680 31 -43 98 -71 152 -65 49 5 85 27 117 71 20 27 21
42 26 579 3 304 8 557 12 564 13 18 61 31 86 22 12 -5 27 -20 32 -34 6 -17 10
-575 10 -1555 l0 -1528 28 -53 c31 -60 102 -112 168 -122 89 -15 197 39 238
118 21 39 21 52 26 953 l5 914 24 19 c29 24 53 24 82 0 l24 -19 5 -914 5 -915
30 -48 c42 -67 116 -108 195 -108 101 0 192 63 219 152 8 28 11 448 11 1555 0
1622 -1 1584 47 1587 40 3 59 -3 76 -23 16 -19 17 -60 17 -552 0 -496 2 -534
19 -572 52 -115 215 -125 282 -17 l24 38 0 650 0 650 -28 78 c-36 102 -79 169
-155 239 -72 66 -163 113 -260 133 -95 20 -1016 20 -1109 0z"/>
<path d="M8193 7026 c-103 -33 -201 -120 -260 -232 -36 -69 -373 -1159 -373
-1207 0 -123 99 -207 210 -177 41 11 94 63 111 109 6 14 71 231 146 481 74
250 141 465 149 478 16 24 53 29 72 10 7 -7 12 -26 12 -43 0 -17 -103 -406
-230 -865 -126 -459 -230 -836 -230 -837 0 -1 96 -4 213 -5 l212 -3 5 -637 5
-636 30 -43 c92 -130 290 -110 356 36 17 37 19 82 19 663 l0 623 58 -3 57 -3
5 -637 5 -636 30 -43 c92 -130 290 -110 356 36 17 37 19 82 19 662 l0 623 213
2 214 3 -143 520 c-328 1187 -326 1179 -315 1208 8 21 17 27 40 27 15 0 33 -6
40 -13 6 -8 74 -226 151 -486 77 -260 147 -485 155 -500 20 -39 78 -88 113
-96 64 -14 147 27 179 88 35 68 26 108 -157 702 -187 607 -197 632 -297 733
-29 29 -78 65 -110 80 l-58 27 -480 2 c-377 2 -489 -1 -522 -11z"/>
<path d="M4397 6060 c-91 -23 -178 -95 -218 -179 -30 -63 -37 -181 -15 -247
55 -165 245 -262 408 -209 153 51 234 170 226 333 -6 126 -73 227 -185 279
-58 27 -158 37 -216 23z"/>
<path d="M10347 6060 c-91 -23 -177 -93 -219 -178 -31 -63 -37 -180 -13 -252
54 -161 245 -258 407 -205 153 51 234 170 226 333 -6 126 -73 227 -185 279
-58 27 -158 37 -216 23z"/>
<path d="M10095 5266 c-107 -30 -168 -132 -339 -565 -125 -316 -139 -357 -131
-397 8 -46 56 -84 105 -84 73 0 81 14 183 339 50 162 97 296 104 298 10 4 13
-154 15 -699 3 -647 4 -706 20 -735 46 -83 145 -114 227 -71 87 45 85 36 91
403 3 196 9 328 15 334 22 20 70 17 81 -6 5 -10 11 -161 14 -335 5 -299 6
-318 26 -345 25 -35 98 -73 139 -73 41 0 114 38 139 73 21 28 21 42 26 743 3
467 8 714 15 713 6 0 51 -114 101 -252 112 -313 118 -324 155 -332 39 -9 94
11 119 42 44 56 42 64 -113 453 -80 200 -159 382 -175 405 -20 29 -49 52 -88
71 l-59 29 -310 2 c-239 2 -321 -1 -360 -11z"/>
</g>
</svg>
